<svg width="536" height="536" viewBox="0 0 536 536" fill="none" xmlns="http://www.w3.org/2000/svg">
<g clip-path="url(#clip0_2114_4589)">
<g filter="url(#filter0_d_2114_4589)">
<rect x="48" y="48" width="440" height="440" rx="30" fill="#1C1C1C"/>
<path d="M430.5 268.5C430.5 269.917 429.804 271.575 427.887 273.477C425.965 275.384 422.997 277.344 418.952 279.286C410.872 283.164 399.021 286.724 384.175 289.738C354.524 295.758 313.448 299.5 268 299.5C222.552 299.5 181.476 295.758 151.825 289.738C136.979 286.724 125.127 283.164 117.048 279.286C113.003 277.344 110.035 275.384 108.113 273.477C106.196 271.575 105.5 269.917 105.5 268.5C105.5 267.083 106.196 265.425 108.113 263.523C110.035 261.616 113.003 259.656 117.048 257.714C125.127 253.836 136.979 250.276 151.825 247.262C181.476 241.242 222.552 237.5 268 237.5C313.448 237.5 354.524 241.242 384.175 247.262C399.021 250.276 410.872 253.836 418.952 257.714C422.997 259.656 425.965 261.616 427.887 263.523C429.804 265.425 430.5 267.083 430.5 268.5Z" stroke="#F8F8F8" stroke-width="5"/>
<path d="M268 106C269.417 106 271.075 106.696 272.977 108.613C274.884 110.535 276.844 113.503 278.786 117.548C282.664 125.628 286.224 137.479 289.238 152.325C295.258 181.976 299 223.052 299 268.5C299 313.948 295.258 355.024 289.238 384.675C286.224 399.521 282.664 411.373 278.786 419.452C276.844 423.497 274.884 426.465 272.977 428.387C271.075 430.304 269.417 431 268 431C266.583 431 264.925 430.304 263.023 428.387C261.116 426.465 259.156 423.497 257.214 419.452C253.336 411.373 249.776 399.521 246.762 384.675C240.742 355.024 237 313.948 237 268.5C237 223.052 240.742 181.976 246.762 152.325C249.776 137.479 253.336 125.628 257.214 117.548C259.156 113.503 261.116 110.535 263.023 108.613C264.925 106.696 266.583 106 268 106Z" stroke="#F8F8F8" stroke-width="5"/>
<circle cx="176" cy="180" r="23" fill="#F8F8F8"/>
<circle cx="360" cy="180" r="23" fill="#F8F8F8"/>
<circle cx="176" cy="364" r="23" fill="#F8F8F8"/>
<circle cx="360" cy="364" r="23" fill="#F8F8F8"/>
<rect x="169.5" y="174.5" width="198" height="198" stroke="#F8F8F8" stroke-width="5"/>
</g>
</g>
<defs>
<filter id="filter0_d_2114_4589" x="-2" y="2" width="540" height="540" filterUnits="userSpaceOnUse" color-interpolation-filters="sRGB">
<feFlood flood-opacity="0" result="BackgroundImageFix"/>
<feColorMatrix in="SourceAlpha" type="matrix" values="0 0 0 0 0 0 0 0 0 0 0 0 0 0 0 0 0 0 127 0" result="hardAlpha"/>
<feOffset dy="4"/>
<feGaussianBlur stdDeviation="25"/>
<feComposite in2="hardAlpha" operator="out"/>
<feColorMatrix type="matrix" values="0 0 0 0 0 0 0 0 0 0 0 0 0 0 0 0 0 0 0.25 0"/>
<feBlend mode="normal" in2="BackgroundImageFix" result="effect1_dropShadow_2114_4589"/>
<feBlend mode="normal" in="SourceGraphic" in2="effect1_dropShadow_2114_4589" result="shape"/>
</filter>
<clipPath id="clip0_2114_4589">
<rect width="536" height="536" fill="white"/>
</clipPath>
</defs>
</svg>
